# Blender 3.1.0
# www.blender.org
mtllib TowerUpper.mtl
o TowerUpperPart
v 91.894577 18.775774 2.338078
v 110.645050 18.775774 2.338078
v 91.894577 18.775774 -16.412403
v 110.645050 18.775774 -16.412403
v 93.636314 21.774366 -16.412403
v 93.636314 21.774366 2.338078
v 110.645050 21.774366 2.338078
v 110.645050 21.774366 -16.412403
v 92.680367 42.410389 1.552284
v 109.859261 42.410389 1.552284
v 92.680367 42.410389 -15.626608
v 109.859261 42.410389 -15.626608
v 93.636314 40.668652 -16.412403
v 109.859261 20.032627 -15.626608
v 109.859261 20.032627 1.552284
v 110.645050 42.410389 -16.412403
v 110.645050 42.410389 2.338078
v 92.680367 20.032627 1.552284
v 92.680367 20.032627 -15.626608
v 93.636314 40.668652 2.338078
v 91.894577 20.032627 2.338078
v 110.645050 20.032627 2.338078
v 110.645050 20.032627 -16.412403
v 91.894577 20.032627 -16.412403
v 91.894577 42.410389 -16.412403
v 91.894577 42.410389 2.338078
v 110.645050 40.668652 -16.412403
v 110.645050 40.668652 2.338078
v 110.206093 40.181034 1.854174
v 110.206093 22.261982 1.854174
v 110.206093 22.261982 -15.928497
v 110.206093 40.181034 -15.928497
v 94.075264 22.261982 1.854174
v 94.075264 22.261982 -15.928497
v 94.075264 40.181034 -15.928497
v 94.075264 40.181034 1.854174
vn -0.0000 -1.0000 -0.0000
vn 1.0000 -0.0000 -0.0000
vn -1.0000 -0.0000 -0.0000
vn -0.0000 -0.0000 -1.0000
vn -0.0000 -0.0000 1.0000
vn -0.0000 -0.7044 0.7098
vn -0.0000 0.7044 0.7098
vn -0.0000 0.7044 -0.7098
vn -0.0000 1.0000 -0.0000
vn -0.0000 -0.7044 -0.7098
vn 0.7432 0.6690 -0.0000
vn 0.7432 -0.6691 -0.0000
vn 0.7407 -0.0000 0.6719
vn 0.7407 -0.0000 -0.6719
vn -0.7071 -0.0000 -0.7071
vn -0.7071 -0.0000 0.7071
vt 0.000000 0.000000
vt 1.000000 0.000000
vt 0.000000 1.000000
vt 1.000000 1.000000
vt 0.092890 1.000000
vt 0.092890 0.000000
vt 1.000000 0.000000
vt 1.000000 1.000000
vt 0.000000 0.000000
vt 1.000000 0.000000
vt 0.000000 1.000000
vt 1.000000 1.000000
vt 0.092890 1.000000
vt 1.000000 1.000000
vt 1.000000 0.000000
vt 1.000000 1.000000
vt 1.000000 0.000000
vt 0.000000 0.000000
vt 0.000000 1.000000
vt 0.092890 0.000000
vt 0.000000 0.000000
vt 1.000000 0.000000
vt 1.000000 1.000000
vt 0.000000 1.000000
vt 0.000000 1.000000
vt 0.000000 0.000000
vt 1.000000 1.000000
vt 1.000000 0.000000
vt 1.000000 0.000000
vt 1.000000 0.000000
vt 1.000000 1.000000
vt 1.000000 1.000000
vt 0.092890 0.000000
vt 0.092890 1.000000
vt 0.092890 1.000000
vt 0.092890 0.000000
s 0
f 1/1/1 3/3/1 4/4/1 2/2/1
f 2/2/2 4/4/2 23/23/2 22/22/2
f 3/3/3 1/1/3 21/21/3 24/24/3
f 4/4/4 3/3/4 24/24/4 23/23/4
f 1/1/5 2/2/5 22/22/5 21/21/5
f 28/28/6 20/20/6 36/36/6 29/29/6
f 6/6/7 7/7/7 30/30/7 33/33/7
f 8/8/8 5/5/8 34/34/8 31/31/8
f 14/14/9 19/19/9 18/18/9 15/15/9
f 17/17/9 16/16/9 25/25/9 11/11/9 12/12/9 10/10/9 9/9/9 26/26/9
f 24/24/9 21/21/9 18/18/9 19/19/9
f 7/7/5 6/6/5 21/21/5 22/22/5
f 8/8/2 7/7/2 22/22/2 23/23/2
f 5/5/4 8/8/4 23/23/4 24/24/4
f 27/27/4 13/13/4 25/25/4 16/16/4
f 28/28/2 27/27/2 16/16/2 17/17/2
f 20/20/5 28/28/5 17/17/5 26/26/5
f 13/13/10 27/27/10 32/32/10 35/35/10
f 7/7/11 8/8/11 31/31/11 30/30/11
f 27/27/12 28/28/12 29/29/12 32/32/12
f 20/20/13 6/6/13 33/33/13 36/36/13
f 5/5/14 13/13/14 35/35/14 34/34/14
f 31/31/2 32/32/2 29/29/2 30/30/2
f 34/34/4 35/35/4 32/32/4 31/31/4
f 30/30/5 29/29/5 36/36/5 33/33/5
f 6/6/5 20/20/5 26/26/5 21/21/5
f 13/13/4 5/5/4 24/24/4 25/25/4
f 14/14/5 12/12/5 11/11/5 19/19/5
f 21/21/15 26/26/15 9/9/15 18/18/15
f 19/19/16 11/11/16 25/25/16 24/24/16
f 18/18/4 9/9/4 10/10/4 15/15/4
f 15/15/3 10/10/3 12/12/3 14/14/3
