# Blender 3.1.0
# www.blender.org
mtllib TowerRoof.mtl
o TowerRoof
v 109.093483 43.558662 -14.860824
v 109.093483 42.002098 -14.860824
v 109.093483 43.558662 0.786508
v 109.093483 42.002098 0.786508
v 93.446152 43.558662 -14.860824
v 93.446152 42.002098 -14.860824
v 93.446152 43.558662 0.786508
v 93.446152 42.002098 0.786508
v 109.333069 43.677734 2.513478
v 109.092491 43.503384 -16.570686
v 110.934319 42.002098 -16.701660
v 110.934319 42.002098 2.627345
v 91.733429 43.500393 0.825730
v 91.605309 42.002098 2.627345
v 93.447136 43.503384 -16.570686
v 91.605309 42.002098 -16.701660
v 101.269814 58.427532 -8.748004
v 110.838760 43.466343 -15.357924
v 91.733429 43.500393 -14.900046
v 99.596313 58.466591 -7.037158
v 91.605309 43.558662 -16.701660
v 93.206558 43.485493 2.513478
v 101.269814 58.661217 -5.549777
v 91.605309 43.558662 2.627345
v 110.838760 43.466343 1.283608
v 102.517990 58.911354 -7.037158
v 110.934319 43.558662 2.627345
v 110.934319 43.558662 -16.701660
v 101.269814 60.216602 -7.037158
v 91.605309 42.002098 2.627345
v 91.605309 43.558662 2.627345
v 91.605309 43.558662 -16.701660
v 91.605309 42.002098 -16.701660
vn 1.0000 -0.0000 -0.0000
vn -0.0000 -0.0000 1.0000
vn -0.0000 1.0000 -0.0000
vn -0.0000 -0.0000 -1.0000
vn -1.0000 -0.0000 -0.0000
vn -0.0000 -1.0000 -0.0000
vn 0.5858 -0.5984 -0.5467
vn -0.0000 0.9213 0.3888
vn -0.1606 0.5447 -0.8231
vn 0.1606 0.5447 -0.8231
vn 0.4140 0.9103 -0.0000
vn -0.8233 0.5447 -0.1595
vn -0.8233 0.5447 0.1595
vn -0.0053 0.9803 0.1976
vn 0.1908 0.5590 0.8069
vn -0.1534 0.5446 0.8245
vn -0.6948 0.7192 -0.0000
vn 0.8269 0.5437 0.1437
vn 0.8269 0.5437 -0.1437
vn 0.5642 -0.5959 0.5715
vn -0.5117 -0.5993 0.6157
vn -0.5545 -0.6058 -0.5706
vn 0.1501 -0.9860 0.0720
vt 0.148809 0.726191
vt 0.000000 0.000000
vt 0.851191 0.726191
vt 0.000000 0.000000
vt 0.000000 0.000000
vt 0.148809 0.523809
vt 0.000000 0.000000
vt 0.851191 0.523809
vt 0.351191 0.726191
vt 0.000000 0.000000
vt 0.648809 0.726191
vt 0.000000 0.000000
vt 0.351191 0.523809
vt 0.000000 0.000000
vt 0.648809 0.523809
vt 0.000000 0.000000
vt 0.000000 0.000000
vt 0.000000 0.000000
vt 0.625000 0.000000
vt 0.625000 1.000000
vt 0.875000 0.750000
vt 0.625000 0.250000
vt 0.875000 0.500000
vt 0.000000 0.000000
vt 0.625000 0.500000
vt 0.000000 0.000000
vt 0.625000 0.750000
vt 0.000000 0.000000
vt 0.000000 0.000000
vt 0.000000 0.000000
vt 0.000000 0.000000
vt 0.000000 0.000000
vt 0.375000 0.750000
vt 0.000000 0.000000
vt 0.000000 0.000000
vt 0.000000 0.000000
vt 0.375000 0.500000
vt 0.000000 0.000000
vt 0.000000 0.000000
vt 0.375000 0.250000
vt 0.125000 0.500000
vt 0.000000 0.000000
vt 0.375000 0.000000
vt 0.375000 1.000000
vt 0.125000 0.750000
vt 0.000000 0.000000
vt 0.000000 0.000000
vt 0.625000 0.500000
vt 0.375000 0.500000
vt 0.375000 0.750000
vt 0.625000 0.750000
s 0
f 28/43/1 27/40/1 12/22/1 11/19/1
f 27/40/2 24/37/2 14/25/2 12/22/2
f 16/27/3 14/25/3 30/48/3 33/51/3
f 21/33/4 28/44/4 11/20/4 16/27/4
f 8/16/4 7/14/4 3/5/4 4/7/4
f 3/6/5 1/1/5 2/3/5 4/8/5
f 3/6/3 27/41/3 28/45/3 1/1/3
f 2/3/6 11/21/6 12/23/6 4/8/6
f 7/13/3 24/37/3 27/41/3 3/6/3
f 4/8/6 12/23/6 14/25/6 8/15/6
f 5/9/3 21/33/3 24/37/3 7/13/3
f 8/15/6 14/25/6 16/27/6 6/11/6
f 1/1/3 28/45/3 21/33/3 5/9/3
f 6/11/6 16/27/6 11/21/6 2/3/6
f 6/12/1 5/10/1 7/14/1 8/16/1
f 2/4/2 1/2/2 5/10/2 6/12/2
f 20/31/7 23/35/7 22/34/7 13/24/7
f 15/26/8 10/18/8 28/46/8 21/32/8
f 17/28/9 15/26/9 21/32/9 29/47/9
f 10/18/10 17/28/10 29/47/10 28/46/10
f 13/24/11 19/30/11 21/32/11 24/36/11
f 19/30/12 20/31/12 29/47/12 21/32/12
f 20/31/13 13/24/13 24/36/13 29/47/13
f 9/17/14 22/34/14 24/36/14 27/42/14
f 23/35/15 9/17/15 27/42/15 29/47/15
f 22/34/16 23/35/16 29/47/16 24/36/16
f 18/29/17 25/38/17 27/42/17 28/46/17
f 25/38/18 26/39/18 29/47/18 27/42/18
f 26/39/19 18/29/19 28/46/19 29/47/19
f 15/26/20 17/28/20 20/31/20 19/30/20
f 17/28/21 10/18/21 18/29/21 26/39/21
f 23/35/22 26/39/22 25/38/22 9/17/22
f 23/35/23 20/31/23 17/28/23 26/39/23
f 31/49/5 32/50/5 33/51/5 30/48/5
f 14/25/3 24/37/3 31/49/3 30/48/3
f 21/33/3 16/27/3 33/51/3 32/50/3
f 24/37/3 21/33/3 32/50/3 31/49/3
