# Blender 3.1.0
# www.blender.org
mtllib BigTowerWithWalls.mtl
o TowerWithWalls
v 91.894577 -2.056082 2.338078
v 110.645050 -2.056082 2.338078
v 91.894577 -2.056082 -16.412403
v 110.645050 -2.056082 -16.412403
v 91.894577 -0.799229 -16.412403
v 91.894577 -0.799229 2.338078
v 110.645050 -0.799229 2.338078
v 110.645050 -0.799229 -16.412403
v 109.042061 -0.825987 2.279386
v 109.042061 42.233101 2.279386
v 109.042061 -0.825987 0.840173
v 109.042061 42.233101 0.840173
v 110.481277 -0.825987 2.279386
v 110.481277 42.233101 2.279386
v 110.481277 -0.825987 0.840173
v 110.481277 42.233101 0.840173
v 93.497559 -0.825987 2.279386
v 93.497559 42.233101 2.279386
v 93.497559 -0.825987 0.840173
v 93.497559 42.233101 0.840173
v 92.058350 -0.825987 2.279386
v 92.058350 42.233101 2.279386
v 92.058350 -0.825987 0.840173
v 92.058350 42.233101 0.840173
v 109.042061 -0.825987 -16.353703
v 109.042061 42.233101 -16.353703
v 109.042061 -0.825987 -14.914489
v 109.042061 42.233101 -14.914489
v 110.481277 -0.825987 -16.353703
v 110.481277 42.233101 -16.353703
v 110.481277 -0.825987 -14.914489
v 110.481277 42.233101 -14.914489
v 93.497559 -0.825987 -16.353703
v 93.497559 42.233101 -16.353703
v 93.497559 -0.825987 -14.914489
v 93.497559 42.233101 -14.914489
v 92.058350 -0.825987 -16.353703
v 92.058350 42.233101 -16.353703
v 92.058350 -0.825987 -14.914489
v 92.058350 42.233101 -14.914489
v 109.093483 43.558662 -14.860824
v 109.093483 42.002098 -14.860824
v 109.093483 43.558662 0.786508
v 109.093483 42.002098 0.786508
v 93.446152 43.558662 -14.860824
v 93.446152 42.002098 -14.860824
v 93.446152 43.558662 0.786508
v 93.446152 42.002098 0.786508
v 110.934319 42.002098 -16.701660
v 110.934319 42.002098 2.627345
v 91.605309 42.002098 -16.701660
v 109.093483 18.623646 -14.860824
v 109.093483 17.067085 -14.860824
v 109.093483 18.623646 0.786508
v 109.093483 17.067085 0.786508
v 93.446152 18.623646 -14.860824
v 93.446152 17.067085 -14.860824
v 93.446152 18.623646 0.786508
v 93.446152 17.067085 0.786508
v 110.934319 18.623646 2.627345
v 110.934319 18.623646 -16.701660
v 110.934319 17.067085 -16.701660
v 110.934319 17.067085 2.627345
v 91.605309 18.623646 2.627345
v 91.605309 17.067085 2.627345
v 91.605309 18.623646 -16.701660
v 91.605309 17.067085 -16.701660
v 91.605309 43.558662 -16.701660
v 91.605309 43.558662 2.627345
v 110.934319 43.558662 2.627345
v 110.934319 43.558662 -16.701660
v 91.605309 42.002098 2.627345
v 93.497559 17.774660 -14.914489
v 93.497559 17.774660 0.840172
v 106.525146 26.051790 0.358462
v 106.392883 26.288055 0.358462
v 93.348640 18.675591 0.113463
v 93.216377 18.911858 0.113463
v 106.531960 26.055607 -2.537171
v 106.399696 26.291872 -2.537171
v 93.355453 18.679407 -2.782153
v 93.223198 18.915672 -2.782153
v 93.353020 18.678041 -1.746331
v 93.351082 18.676956 -0.922359
v 93.218819 18.913223 -0.922359
v 93.220757 18.914307 -1.746331
v 106.527580 26.053154 -0.677376
v 106.529518 26.054241 -1.501333
v 106.397263 26.290508 -1.501333
v 106.395317 26.289421 -0.677376
v 109.085831 31.713995 -12.569656
v 109.101028 31.950523 -12.438744
v 109.293350 26.224739 -2.675865
v 109.308556 26.461267 -2.544953
v 106.196838 31.802849 -12.394751
v 106.212044 32.039379 -12.263838
v 106.404381 26.313593 -2.500962
v 106.419586 26.550121 -2.370050
v 107.437828 26.281807 -2.563527
v 108.259911 26.256523 -2.613299
v 108.275108 26.493053 -2.482388
v 107.453026 26.518335 -2.432615
v 108.052368 31.745781 -12.507088
v 107.230301 31.771065 -12.457317
v 107.245499 32.007591 -12.326406
v 108.067566 31.982309 -12.376175
v 96.189926 37.250492 -15.015193
v 96.321243 37.487022 -15.026340
v 106.085403 31.761234 -14.916898
v 106.216721 31.997765 -14.928046
v 96.275475 37.339348 -12.122182
v 96.406799 37.575874 -12.133329
v 106.170952 31.850090 -12.023903
v 106.302277 32.086617 -12.035051
v 106.140350 31.818304 -13.058786
v 106.116005 31.793022 -13.882013
v 106.247330 32.029549 -13.893162
v 106.271675 32.054832 -13.069935
v 96.220528 37.282276 -13.980292
v 96.244873 37.307560 -13.157082
v 96.376190 37.544090 -13.168230
v 96.351852 37.518806 -13.991440
v 93.702332 43.004326 -2.276314
v 93.702202 43.240883 -2.408056
v 93.948074 37.499687 -12.160681
v 93.947945 37.736244 -12.292423
v 96.597961 43.008476 -2.271704
v 96.597832 43.245029 -2.403447
v 96.843689 37.503838 -12.156070
v 96.843559 37.740395 -12.287812
v 95.807869 37.502354 -12.157720
v 94.983894 37.501175 -12.159029
v 94.983765 37.737732 -12.290771
v 95.807739 37.738907 -12.289462
v 94.738167 43.005810 -2.274666
v 95.562126 43.006989 -2.273354
v 95.561996 43.243546 -2.405096
v 94.738037 43.242367 -2.406408
v 106.053734 26.054617 0.597648
v 106.053734 26.534216 0.597648
v 106.053734 26.054617 -2.592768
v 106.053734 26.534216 -2.592768
v 109.244148 26.054617 0.597648
v 109.244148 26.534216 0.597648
v 109.244148 26.054617 -2.592768
v 109.244148 26.534216 -2.592768
v 106.187073 31.642469 -11.996935
v 106.187073 32.147243 -11.996935
v 106.187073 31.642469 -15.354826
v 106.187073 32.147243 -15.354826
v 109.544968 31.642469 -11.996935
v 109.544968 32.147243 -11.996935
v 109.544968 31.642469 -15.354826
v 109.544968 32.147243 -15.354826
v 93.700554 37.322857 -12.256964
v 93.700554 37.749454 -12.256964
v 93.700554 37.322857 -15.094797
v 93.700554 37.749454 -15.094797
v 96.538383 37.322857 -12.256964
v 96.538383 37.749454 -12.256964
v 96.538383 37.322857 -15.094797
v 96.538383 37.749454 -15.094797
v 93.241508 42.727364 1.246981
v 93.241508 43.291969 1.246981
v 93.241508 42.727364 -2.508938
v 93.241508 43.291969 -2.508938
v 96.997429 42.727364 1.246981
v 96.997429 43.291969 1.246981
v 96.997429 42.727364 -2.508938
v 96.997429 43.291969 -2.508938
vn -0.0000 -1.0000 -0.0000
vn -0.0000 1.0000 -0.0000
vn 1.0000 -0.0000 -0.0000
vn -1.0000 -0.0000 -0.0000
vn -0.0000 -0.0000 -1.0000
vn -0.0000 -0.0000 1.0000
vn -0.0142 -0.0079 0.9999
vn -0.8726 -0.4885 -0.0027
vn 0.0142 0.0079 -0.9999
vn 0.8726 0.4885 0.0027
vn 0.4885 -0.8726 -0.0000
vn -0.4885 0.8726 -0.0000
vn 0.9983 -0.0402 -0.0433
vn 0.0379 -0.4858 0.8733
vn -0.9983 0.0402 0.0433
vn -0.0379 0.4858 -0.8733
vn -0.0561 -0.8736 -0.4835
vn 0.0561 0.8736 0.4835
vn 0.9983 -0.0402 -0.0432
vn -0.0124 -0.0402 -0.9991
vn 0.8740 -0.4858 -0.0109
vn 0.0124 0.0402 0.9991
vn -0.8740 0.4858 0.0109
vn -0.4850 -0.8736 0.0412
vn 0.4850 0.8736 -0.0412
vn -0.9998 -0.0110 -0.0187
vn 0.0021 -0.4866 -0.8737
vn 0.9998 0.0110 0.0187
vn -0.0021 0.4866 0.8737
vn 0.0005 -0.8737 0.4866
vn -0.0005 0.8737 -0.4866
vn -0.0021 0.4866 0.8736
vt 0.000000 0.000000
vt 1.000000 0.000000
vt 0.000000 1.000000
vt 1.000000 1.000000
vt 0.000000 1.000000
vt 0.000000 0.000000
vt 1.000000 0.000000
vt 1.000000 1.000000
vt 0.375000 1.000000
vt 0.125000 0.750000
vt 0.375000 0.000000
vt 0.625000 1.000000
vt 0.875000 0.750000
vt 0.625000 0.000000
vt 0.125000 0.500000
vt 0.375000 0.250000
vt 0.875000 0.500000
vt 0.625000 0.250000
vt 0.375000 0.750000
vt 0.625000 0.750000
vt 0.375000 0.500000
vt 0.625000 0.500000
vt 0.375000 1.000000
vt 0.125000 0.750000
vt 0.375000 0.000000
vt 0.625000 1.000000
vt 0.875000 0.750000
vt 0.625000 0.000000
vt 0.125000 0.500000
vt 0.375000 0.250000
vt 0.875000 0.500000
vt 0.625000 0.250000
vt 0.375000 0.750000
vt 0.625000 0.750000
vt 0.375000 0.500000
vt 0.625000 0.500000
vt 0.375000 1.000000
vt 0.125000 0.750000
vt 0.375000 0.000000
vt 0.625000 1.000000
vt 0.875000 0.750000
vt 0.625000 0.000000
vt 0.125000 0.500000
vt 0.375000 0.250000
vt 0.875000 0.500000
vt 0.625000 0.250000
vt 0.375000 0.750000
vt 0.625000 0.750000
vt 0.375000 0.500000
vt 0.625000 0.500000
vt 0.375000 1.000000
vt 0.125000 0.750000
vt 0.375000 0.000000
vt 0.625000 1.000000
vt 0.875000 0.750000
vt 0.625000 0.000000
vt 0.125000 0.500000
vt 0.375000 0.250000
vt 0.875000 0.500000
vt 0.625000 0.250000
vt 0.375000 0.750000
vt 0.625000 0.750000
vt 0.375000 0.500000
vt 0.625000 0.500000
vt 0.148809 0.726191
vt 0.000000 0.000000
vt 0.851191 0.726191
vt 0.000000 0.000000
vt 0.148809 0.523809
vt 0.000000 0.000000
vt 0.000000 0.000000
vt 0.851191 0.523809
vt 0.000000 0.000000
vt 0.648809 0.726191
vt 0.000000 0.000000
vt 0.000000 0.000000
vt 0.648809 0.523809
vt 0.000000 0.000000
vt 0.625000 0.000000
vt 0.625000 1.000000
vt 0.875000 0.750000
vt 0.625000 0.250000
vt 0.875000 0.500000
vt 0.625000 0.750000
vt 0.148809 0.726191
vt 0.000000 0.000000
vt 0.851191 0.726191
vt 0.000000 0.000000
vt 0.148809 0.523809
vt 0.000000 0.000000
vt 0.851191 0.523809
vt 0.000000 0.000000
vt 0.351191 0.726191
vt 0.000000 0.000000
vt 0.648809 0.726191
vt 0.000000 0.000000
vt 0.351191 0.523809
vt 0.000000 0.000000
vt 0.648809 0.523809
vt 0.000000 0.000000
vt 0.375000 0.250000
vt 0.125000 0.500000
vt 0.375000 0.000000
vt 0.375000 1.000000
vt 0.125000 0.750000
vt 0.625000 0.000000
vt 0.625000 1.000000
vt 0.875000 0.750000
vt 0.625000 0.250000
vt 0.875000 0.500000
vt 0.375000 0.500000
vt 0.625000 0.500000
vt 0.375000 0.750000
vt 0.625000 0.750000
vt 0.375000 0.750000
vt 0.000000 0.000000
vt 0.375000 0.500000
vt 0.000000 0.000000
vt 0.375000 0.250000
vt 0.000000 0.000000
vt 0.375000 0.000000
vt 0.375000 1.000000
vt 0.000000 0.000000
vt 0.625000 0.500000
vt 0.524163 0.250000
vt 0.524163 0.250000
vt 0.375000 0.000000
vt 0.375000 1.000000
vt 0.125000 0.750000
vt 0.625000 0.000000
vt 0.625000 1.000000
vt 0.875000 0.750000
vt 0.125000 0.500000
vt 0.375000 0.250000
vt 0.875000 0.500000
vt 0.625000 0.250000
vt 0.375000 0.750000
vt 0.625000 0.750000
vt 0.375000 0.500000
vt 0.625000 0.500000
vt 0.375000 0.410570
vt 0.285570 0.500000
vt 0.000000 0.000000
vt 0.214431 0.500000
vt 0.375000 0.339431
vt 0.000000 0.000000
vt 0.785569 0.500000
vt 0.625000 0.339431
vt 0.000000 0.000000
vt 0.625000 0.410570
vt 0.714430 0.500000
vt 0.000000 0.000000
vt 0.375000 0.910569
vt 0.214431 0.750000
vt 0.000000 0.000000
vt 0.285570 0.750000
vt 0.375000 0.839430
vt 0.000000 0.000000
vt 0.714430 0.750000
vt 0.625000 0.839430
vt 0.000000 0.000000
vt 0.625000 0.910569
vt 0.785569 0.750000
vt 0.000000 0.000000
vt 0.375000 0.000000
vt 0.375000 1.000000
vt 0.125000 0.750000
vt 0.625000 0.000000
vt 0.625000 1.000000
vt 0.875000 0.750000
vt 0.125000 0.500000
vt 0.375000 0.250000
vt 0.875000 0.500000
vt 0.625000 0.250000
vt 0.375000 0.750000
vt 0.625000 0.750000
vt 0.375000 0.500000
vt 0.625000 0.500000
vt 0.375000 0.410570
vt 0.285570 0.500000
vt 0.000000 0.000000
vt 0.214431 0.500000
vt 0.375000 0.339431
vt 0.000000 0.000000
vt 0.785569 0.500000
vt 0.625000 0.339431
vt 0.000000 0.000000
vt 0.625000 0.410570
vt 0.714430 0.500000
vt 0.000000 0.000000
vt 0.375000 0.910569
vt 0.214431 0.750000
vt 0.000000 0.000000
vt 0.285570 0.750000
vt 0.375000 0.839430
vt 0.000000 0.000000
vt 0.714430 0.750000
vt 0.625000 0.839430
vt 0.000000 0.000000
vt 0.625000 0.910569
vt 0.785569 0.750000
vt 0.000000 0.000000
vt 0.375000 0.000000
vt 0.375000 1.000000
vt 0.125000 0.750000
vt 0.625000 0.000000
vt 0.625000 1.000000
vt 0.875000 0.750000
vt 0.125000 0.500000
vt 0.375000 0.250000
vt 0.875000 0.500000
vt 0.625000 0.250000
vt 0.375000 0.750000
vt 0.625000 0.750000
vt 0.375000 0.500000
vt 0.625000 0.500000
vt 0.375000 0.410570
vt 0.285570 0.500000
vt 0.000000 0.000000
vt 0.214431 0.500000
vt 0.375000 0.339431
vt 0.000000 0.000000
vt 0.785569 0.500000
vt 0.625000 0.339431
vt 0.000000 0.000000
vt 0.625000 0.410570
vt 0.714430 0.500000
vt 0.000000 0.000000
vt 0.375000 0.910569
vt 0.214431 0.750000
vt 0.000000 0.000000
vt 0.285570 0.750000
vt 0.375000 0.839430
vt 0.000000 0.000000
vt 0.714430 0.750000
vt 0.625000 0.839430
vt 0.000000 0.000000
vt 0.625000 0.910569
vt 0.785569 0.750000
vt 0.000000 0.000000
vt 0.375000 0.000000
vt 0.375000 1.000000
vt 0.125000 0.750000
vt 0.625000 0.000000
vt 0.625000 1.000000
vt 0.875000 0.750000
vt 0.125000 0.500000
vt 0.375000 0.250000
vt 0.875000 0.500000
vt 0.625000 0.250000
vt 0.375000 0.750000
vt 0.625000 0.750000
vt 0.375000 0.500000
vt 0.625000 0.500000
vt 0.375000 0.410570
vt 0.285570 0.500000
vt 0.000000 0.000000
vt 0.214431 0.500000
vt 0.375000 0.339431
vt 0.000000 0.000000
vt 0.785569 0.500000
vt 0.625000 0.339431
vt 0.000000 0.000000
vt 0.625000 0.410570
vt 0.714430 0.500000
vt 0.000000 0.000000
vt 0.375000 0.910569
vt 0.214431 0.750000
vt 0.000000 0.000000
vt 0.285570 0.750000
vt 0.375000 0.839430
vt 0.000000 0.000000
vt 0.714430 0.750000
vt 0.625000 0.839430
vt 0.000000 0.000000
vt 0.625000 0.910569
vt 0.785569 0.750000
vt 0.000000 0.000000
vt 0.375000 0.000000
vt 0.375000 1.000000
vt 0.125000 0.750000
vt 0.625000 0.000000
vt 0.625000 1.000000
vt 0.875000 0.750000
vt 0.375000 0.250000
vt 0.125000 0.500000
vt 0.625000 0.250000
vt 0.875000 0.500000
vt 0.375000 0.750000
vt 0.625000 0.750000
vt 0.375000 0.500000
vt 0.625000 0.500000
vt 0.375000 0.000000
vt 0.375000 1.000000
vt 0.125000 0.750000
vt 0.625000 0.000000
vt 0.625000 1.000000
vt 0.875000 0.750000
vt 0.375000 0.250000
vt 0.125000 0.500000
vt 0.625000 0.250000
vt 0.875000 0.500000
vt 0.375000 0.750000
vt 0.625000 0.750000
vt 0.375000 0.500000
vt 0.625000 0.500000
vt 0.375000 0.000000
vt 0.375000 1.000000
vt 0.125000 0.750000
vt 0.625000 0.000000
vt 0.625000 1.000000
vt 0.875000 0.750000
vt 0.375000 0.250000
vt 0.125000 0.500000
vt 0.625000 0.250000
vt 0.875000 0.500000
vt 0.375000 0.750000
vt 0.625000 0.750000
vt 0.375000 0.500000
vt 0.625000 0.500000
vt 0.375000 0.000000
vt 0.375000 1.000000
vt 0.125000 0.750000
vt 0.625000 0.000000
vt 0.625000 1.000000
vt 0.875000 0.750000
vt 0.375000 0.250000
vt 0.125000 0.500000
vt 0.625000 0.250000
vt 0.875000 0.500000
vt 0.375000 0.750000
vt 0.625000 0.750000
vt 0.375000 0.500000
vt 0.625000 0.500000
s 0
f 1/1/1 3/3/1 4/4/1 2/2/1
f 6/6/2 7/7/2 8/8/2 5/5/2
f 2/2/3 4/4/3 8/8/3 7/7/3
f 3/3/4 1/1/4 6/6/4 5/5/4
f 4/4/5 3/3/5 5/5/5 8/8/5
f 1/1/6 2/2/6 7/7/6 6/6/6
f 9/11/4 10/14/4 12/18/4 11/16/4
f 11/16/5 12/18/5 16/22/5 15/21/5
f 15/21/3 16/22/3 14/20/3 13/19/3
f 13/19/6 14/20/6 10/12/6 9/9/6
f 11/15/1 15/21/1 13/19/1 9/10/1
f 16/22/2 12/17/2 10/13/2 14/20/2
f 17/25/3 19/30/3 74/126/3 20/32/3 18/28/3
f 19/30/5 23/35/5 24/36/5 20/32/5 74/126/5
f 23/35/4 21/33/4 22/34/4 24/36/4
f 21/33/6 17/23/6 18/26/6 22/34/6
f 19/29/1 17/24/1 21/33/1 23/35/1
f 24/36/2 22/34/2 18/27/2 20/31/2
f 25/39/4 27/44/4 28/46/4 26/42/4
f 27/44/6 31/49/6 32/50/6 28/46/6
f 31/49/3 29/47/3 30/48/3 32/50/3
f 29/47/5 25/37/5 26/40/5 30/48/5
f 27/43/1 25/38/1 29/47/1 31/49/1
f 32/50/2 30/48/2 26/41/2 28/45/2
f 33/53/3 34/56/3 36/60/3 73/125/3 35/58/3
f 35/58/6 73/125/6 36/60/6 40/64/6 39/63/6
f 39/63/4 40/64/4 38/62/4 37/61/4
f 37/61/5 38/62/5 34/54/5 33/51/5
f 35/57/1 39/63/1 37/61/1 33/52/1
f 40/64/2 36/59/2 34/55/2 38/62/2
f 71/121/3 70/119/3 50/82/3 49/79/3
f 70/119/6 69/117/6 72/124/6 50/82/6
f 68/115/5 71/122/5 49/80/5 51/84/5
f 48/78/5 47/76/5 43/70/5 44/71/5
f 43/69/4 41/65/4 42/67/4 44/72/4
f 42/67/1 49/81/1 50/83/1 44/72/1
f 44/72/1 50/83/1 72/124/1 48/77/1
f 48/77/1 72/124/1 51/84/1 46/74/1
f 46/74/1 51/84/1 49/81/1 42/67/1
f 46/75/3 45/73/3 47/76/3 48/78/3
f 42/68/6 41/66/6 45/73/6 46/75/6
f 61/103/3 60/101/3 63/109/3 62/106/3
f 60/101/6 64/111/6 65/112/6 63/109/6
f 64/111/4 66/113/4 67/114/4 65/112/4
f 66/113/5 61/104/5 62/107/5 67/114/5
f 59/100/6 55/92/6 54/90/6 58/98/6
f 54/89/3 55/91/3 53/87/3 52/85/3
f 54/89/2 60/102/2 61/105/2 52/85/2
f 53/87/1 62/108/1 63/110/1 55/91/1
f 58/97/2 64/111/2 60/102/2 54/89/2
f 55/91/1 63/110/1 65/112/1 59/99/1
f 56/93/2 66/113/2 64/111/2 58/97/2
f 59/99/1 65/112/1 67/114/1 57/95/1
f 52/85/2 61/105/2 66/113/2 56/93/2
f 57/95/1 67/114/1 62/108/1 53/87/1
f 57/96/4 59/100/4 58/98/4 56/94/4
f 53/88/5 57/96/5 56/94/5 52/86/5
f 71/123/2 41/66/2 43/70/2 70/120/2
f 58/98/2 54/90/2 52/86/2 56/94/2
f 57/96/1 53/88/1 55/92/1 59/100/1
f 27/44/6 28/46/6 36/60/6 73/125/6 35/58/6
f 35/58/4 19/30/4 74/126/4 73/125/4
f 12/18/5 11/16/5 19/30/5 74/126/5 20/32/5
f 12/18/4 28/46/4 27/44/4 11/16/4
f 69/117/4 68/115/4 51/84/4 72/124/4
f 26/42/5 25/39/5 33/53/5 34/56/5
f 9/11/6 10/14/6 18/28/6 17/25/6
f 16/22/3 15/21/3 31/49/3 32/50/3
f 75/127/7 76/130/7 78/136/7 77/134/7
f 83/141/8 86/150/8 82/140/8 81/139/8
f 81/139/9 82/140/9 80/138/9 79/137/9
f 87/153/10 90/162/10 76/131/10 75/128/10
f 83/142/11 81/139/11 79/137/11 88/156/11
f 85/147/12 78/135/12 76/132/12 90/163/12
f 82/140/12 86/151/12 89/159/12 80/138/12
f 77/133/11 84/144/11 87/154/11 75/129/11
f 79/137/10 80/138/10 89/160/10 88/157/10
f 77/134/8 78/136/8 85/148/8 84/145/8
f 88/158/7 89/161/7 86/152/7 83/143/7
f 84/146/9 85/149/9 90/164/9 87/155/9
f 91/165/13 92/168/13 94/174/13 93/172/13
f 99/179/14 102/188/14 98/178/14 97/177/14
f 97/177/15 98/178/15 96/176/15 95/175/15
f 103/191/16 106/200/16 92/169/16 91/166/16
f 99/180/17 97/177/17 95/175/17 104/194/17
f 101/185/18 94/173/18 92/170/18 106/201/18
f 98/178/18 102/189/18 105/197/18 96/176/18
f 93/171/17 100/182/17 103/192/17 91/167/17
f 95/175/16 96/176/16 105/198/16 104/195/16
f 93/172/14 94/174/14 101/186/14 100/183/14
f 104/196/19 105/199/19 102/190/19 99/181/19
f 100/184/15 101/187/15 106/202/15 103/193/15
f 107/203/20 108/206/20 110/212/20 109/210/20
f 115/217/21 118/226/21 114/216/21 113/215/21
f 113/215/22 114/216/22 112/214/22 111/213/22
f 119/229/23 122/238/23 108/207/23 107/204/23
f 115/218/24 113/215/24 111/213/24 120/232/24
f 117/223/25 110/211/25 108/208/25 122/239/25
f 114/216/25 118/227/25 121/235/25 112/214/25
f 109/209/24 116/220/24 119/230/24 107/205/24
f 111/213/23 112/214/23 121/236/23 120/233/23
f 109/210/21 110/212/21 117/224/21 116/221/21
f 120/234/20 121/237/20 118/228/20 115/219/20
f 116/222/22 117/225/22 122/240/22 119/231/22
f 123/241/26 124/244/26 126/250/26 125/248/26
f 131/255/27 134/264/27 130/254/27 129/253/27
f 129/253/28 130/254/28 128/252/28 127/251/28
f 135/267/29 138/276/29 124/245/29 123/242/29
f 131/256/30 129/253/30 127/251/30 136/270/30
f 133/261/31 126/249/31 124/246/31 138/277/31
f 130/254/31 134/265/31 137/273/31 128/252/31
f 125/247/30 132/258/30 135/268/30 123/243/30
f 127/251/32 128/252/32 137/274/32 136/271/32
f 125/248/27 126/250/27 133/262/27 132/259/27
f 136/272/26 137/275/26 134/266/26 131/257/26
f 132/260/28 133/263/28 138/278/28 135/269/28
f 139/279/4 140/282/4 142/287/4 141/285/4
f 141/285/5 142/287/5 146/292/5 145/291/5
f 145/291/3 146/292/3 144/290/3 143/289/3
f 143/289/6 144/290/6 140/283/6 139/280/6
f 141/286/1 145/291/1 143/289/1 139/281/1
f 146/292/2 142/288/2 140/284/2 144/290/2
f 147/293/4 148/296/4 150/301/4 149/299/4
f 149/299/5 150/301/5 154/306/5 153/305/5
f 153/305/3 154/306/3 152/304/3 151/303/3
f 151/303/6 152/304/6 148/297/6 147/294/6
f 149/300/1 153/305/1 151/303/1 147/295/1
f 154/306/2 150/302/2 148/298/2 152/304/2
f 155/307/4 156/310/4 158/315/4 157/313/4
f 157/313/5 158/315/5 162/320/5 161/319/5
f 161/319/3 162/320/3 160/318/3 159/317/3
f 159/317/6 160/318/6 156/311/6 155/308/6
f 157/314/1 161/319/1 159/317/1 155/309/1
f 162/320/2 158/316/2 156/312/2 160/318/2
f 163/321/4 164/324/4 166/329/4 165/327/4
f 165/327/5 166/329/5 170/334/5 169/333/5
f 169/333/3 170/334/3 168/332/3 167/331/3
f 167/331/6 168/332/6 164/325/6 163/322/6
f 165/328/1 169/333/1 167/331/1 163/323/1
f 170/334/2 166/330/2 164/326/2 168/332/2
f 68/116/2 45/73/2 41/66/2 71/123/2
f 69/118/2 47/76/2 45/73/2 68/116/2
f 70/120/2 43/70/2 47/76/2 69/118/2
