# Blender 3.1.0
# www.blender.org
mtllib Bridge.mtl
o Bridge
v 9.787983 4.596850 -14.903936
v 9.787983 12.310270 -14.903936
v 9.787983 4.596850 -16.975468
v 9.787983 12.114868 -17.291027
v 16.584244 4.596850 -14.903936
v 16.584244 12.137369 -15.183158
v 16.584244 4.596850 -16.975468
v 16.584244 12.152218 -17.230709
v 9.787983 10.903135 -14.903936
v 9.787983 11.098539 -17.291027
v 16.584244 11.061188 -17.230709
v 16.584244 11.076036 -15.183158
v 9.787983 12.310270 -31.585201
v 16.584244 12.310270 -31.585201
v 9.787983 10.903135 -31.585201
v 16.584244 10.731655 -31.308277
v 9.787983 12.114868 -29.350250
v 9.787983 11.098539 -29.350250
v 16.584244 10.731655 -29.942734
v 16.584244 12.152218 -29.410564
v 9.787983 5.130534 -31.585201
v 16.584244 5.302014 -31.308277
v 9.787983 5.130534 -29.665810
v 16.584244 5.302014 -29.942734
v 16.584244 10.903135 -31.585201
v 16.584244 11.061188 -29.410564
v 16.584244 5.130534 -31.585201
v 16.584244 5.130534 -29.665810
v 16.350353 10.731655 -31.308277
v 16.350353 10.731655 -29.942734
v 16.350353 5.302014 -31.308277
v 16.350353 5.302014 -29.942734
v 16.584244 12.137369 -16.696243
v 16.584244 11.076036 -16.696243
v 16.584244 10.903135 -29.665810
v 16.584244 12.310270 -29.665810
v 16.978376 12.152218 -17.230709
v 16.978376 11.061188 -17.230709
v 16.978376 11.061188 -29.410564
v 16.978376 12.152218 -29.410564
v 9.787983 12.310270 -16.975468
v 9.787983 10.903135 -16.975468
v 9.787983 10.903135 -29.665810
v 9.787983 12.310270 -29.665810
v 10.089186 12.114868 -17.291027
v 10.089186 11.098539 -17.291027
v 10.089186 11.098539 -29.350250
v 10.089186 12.114868 -29.350250
v 16.584244 12.310270 -16.975468
v 16.584244 12.310270 -14.903936
v 16.584244 10.903135 -16.975468
v 16.584244 10.903135 -14.903936
v 15.870226 12.137369 -16.696243
v 15.870226 12.137369 -15.183158
v 15.870226 11.076036 -16.696243
v 15.870226 11.076036 -15.183158
vn -1.0000 -0.0000 -0.0000
vn -0.0000 -0.0000 -1.0000
vn -0.0000 -0.0000 1.0000
vn -0.0000 -1.0000 -0.0000
vn -0.0000 1.0000 -0.0000
vn 1.0000 -0.0000 -0.0000
vt 0.125000 0.750000
vt 0.375000 1.000000
vt 0.375000 0.000000
vt 0.625000 0.000000
vt 0.625000 1.000000
vt 0.875000 0.750000
vt 0.125000 0.500000
vt 0.375000 0.250000
vt 0.622182 0.250000
vt 0.375000 0.750000
vt 0.622506 0.716303
vt 0.375000 0.500000
vt 0.622720 0.500000
vt 0.604705 1.000000
vt 0.604705 0.000000
vt 0.607524 0.250000
vt 0.606985 0.500000
vt 0.607199 0.716303
vt 0.625000 0.250000
vt 0.875000 0.500000
vt 0.625000 0.500000
vt 0.604705 0.250000
vt 0.604705 0.500000
vt 0.622182 0.250000
vt 0.607523 0.250000
vt 0.604705 0.500000
vt 0.622720 0.500000
vt 0.604705 0.250000
vt 0.604705 0.500000
vt 0.604705 0.250000
vt 0.604705 0.500000
vt 0.604705 0.500000
vt 0.606985 0.500000
vt 0.604705 0.500000
vt 0.604705 0.500000
vt 0.604705 0.500000
vt 0.604705 0.500000
vt 0.604705 0.500000
vt 0.604705 0.500000
vt 0.622506 0.533697
vt 0.607199 0.533698
vt 0.604705 0.500000
vt 0.625000 0.500000
vt 0.622720 0.500000
vt 0.606985 0.500000
vt 0.606985 0.500000
vt 0.622720 0.500000
vt 0.875000 0.500000
vt 0.625000 0.250000
vt 0.604705 0.250000
vt 0.604705 0.250000
vt 0.875000 0.500000
vt 0.625000 0.250000
vt 0.622182 0.250000
vt 0.607524 0.250000
vt 0.607523 0.250000
vt 0.622182 0.250000
vt 0.625000 0.500000
vt 0.625000 0.750000
vt 0.604705 0.500000
vt 0.604705 0.750000
vt 0.622506 0.533697
vt 0.622506 0.716303
vt 0.607199 0.533698
vt 0.607199 0.716303
s 0
usemtl Material
f 9/15/1 2/4/1 41/49/1 42/50/1
f 43/51/1 44/53/1 13/19/1 15/22/1
f 6/11/2 12/18/2 56/65/2 54/63/2
f 52/61/3 50/59/3 2/5/3 9/14/3
f 3/7/4 7/12/4 5/10/4 1/1/4
f 49/58/5 41/48/5 2/6/5 50/59/5
f 5/10/3 52/61/3 9/14/3 1/2/3
f 7/12/6 51/60/6 52/61/6 5/10/6
f 3/8/2 42/50/2 51/60/2 7/12/2
f 1/3/1 9/15/1 42/50/1 3/8/1
f 15/22/2 13/19/2 14/21/2 25/32/2
f 19/26/2 24/31/2 32/39/2 30/37/2
f 44/52/5 36/43/5 14/21/5 13/20/5
f 36/43/6 35/42/6 25/32/6 14/21/6
f 26/33/2 20/27/2 40/47/2 39/46/2
f 41/48/5 49/58/5 36/43/5 44/52/5
f 51/60/4 42/50/4 43/51/4 35/42/4
f 4/9/4 17/24/4 48/57/4 45/54/4
f 28/35/4 23/30/4 21/28/4 27/34/4
f 43/51/1 15/22/1 21/28/1 23/30/1
f 15/22/2 25/32/2 27/34/2 21/28/2
f 35/42/3 43/51/3 23/30/3 28/35/3
f 19/26/6 16/23/6 25/32/6 35/42/6
f 22/29/6 24/31/6 28/35/6 27/34/6
f 24/31/6 19/26/6 35/42/6 28/35/6
f 16/23/6 22/29/6 27/34/6 25/32/6
f 29/36/6 30/37/6 32/39/6 31/38/6
f 16/23/4 19/26/4 30/37/4 29/36/4
f 22/29/3 16/23/3 29/36/3 31/38/3
f 24/31/5 22/29/5 31/38/5 32/39/5
f 11/17/6 8/13/6 49/58/6 51/60/6
f 26/33/6 11/17/6 51/60/6 35/42/6
f 8/13/6 20/27/6 36/43/6 49/58/6
f 20/27/6 26/33/6 35/42/6 36/43/6
f 37/44/6 38/45/6 39/46/6 40/47/6
f 11/17/4 26/33/4 39/46/4 38/45/4
f 20/27/5 8/13/5 37/44/5 40/47/5
f 8/13/3 11/17/3 38/45/3 37/44/3
f 4/9/1 10/16/1 42/50/1 41/49/1
f 10/16/1 18/25/1 43/51/1 42/50/1
f 17/24/1 4/9/1 41/49/1 44/53/1
f 18/25/1 17/24/1 44/53/1 43/51/1
f 46/55/1 45/54/1 48/57/1 47/56/1
f 10/16/2 4/9/2 45/54/2 46/55/2
f 17/24/3 18/25/3 47/56/3 48/57/3
f 18/25/5 10/16/5 46/55/5 47/56/5
f 6/11/6 33/40/6 49/58/6 50/59/6
f 33/40/6 34/41/6 51/60/6 49/58/6
f 12/18/6 6/11/6 50/59/6 52/61/6
f 34/41/6 12/18/6 52/61/6 51/60/6
f 55/64/6 53/62/6 54/63/6 56/65/6
f 33/40/4 6/11/4 54/63/4 53/62/4
f 12/18/5 34/41/5 55/64/5 56/65/5
f 34/41/3 33/40/3 53/62/3 55/64/3
