# Blender 3.1.0
# www.blender.org
mtllib HollowTower.mtl
o HollowTowerBase
v 48.950146 0.000000 -28.478287
v 67.700623 0.000000 -28.478287
v 48.950146 0.000000 -47.228767
v 67.700623 0.000000 -47.228767
v 48.950146 1.256853 -47.228767
v 48.950146 1.256853 -28.478287
v 67.700623 1.256853 -28.478287
v 67.700623 1.256853 -47.228767
v 66.097633 1.230095 -28.536980
v 66.097633 44.289185 -28.536980
v 66.097633 1.230095 -29.976192
v 66.097633 44.289185 -29.976192
v 67.536850 1.230095 -28.536980
v 67.536850 44.289185 -28.536980
v 67.536850 1.230095 -29.976192
v 67.536850 44.289185 -29.976192
v 50.553135 1.230095 -28.536980
v 50.553135 44.289185 -28.536980
v 50.553135 1.230095 -29.976192
v 50.553135 44.289185 -29.976192
v 49.113922 1.230095 -28.536980
v 49.113922 44.289185 -28.536980
v 49.113922 1.230095 -29.976192
v 49.113922 44.289185 -29.976192
v 66.097633 1.230095 -47.170067
v 66.097633 44.289185 -47.170067
v 66.097633 1.230095 -45.730854
v 66.097633 44.289185 -45.730854
v 67.536850 1.230095 -47.170067
v 67.536850 44.289185 -47.170067
v 67.536850 1.230095 -45.730854
v 67.536850 44.289185 -45.730854
v 50.553135 1.230095 -47.170067
v 50.553135 44.289185 -47.170067
v 50.553135 1.230095 -45.730854
v 50.553135 44.289185 -45.730854
v 49.113922 1.230095 -47.170067
v 49.113922 44.289185 -47.170067
v 49.113922 1.230095 -45.730854
v 49.113922 44.289185 -45.730854
v 66.149055 45.812050 -45.677189
v 66.149055 44.255486 -45.677189
v 66.149055 45.812050 -30.029858
v 66.149055 44.255486 -30.029858
v 50.501720 45.812050 -45.677189
v 50.501720 44.255486 -45.677189
v 50.501720 45.812050 -30.029858
v 50.501720 44.255486 -30.029858
v 66.388641 45.931122 -28.302887
v 66.148064 45.756771 -47.387051
v 67.989891 44.255486 -47.518024
v 67.989891 44.255486 -28.189020
v 48.789001 45.753780 -29.990635
v 48.660881 44.255486 -28.189020
v 50.502708 45.756771 -47.387051
v 48.660881 44.255486 -47.518024
v 66.149055 23.518755 -45.677189
v 66.149055 21.962193 -45.677189
v 66.149055 23.518755 -30.029858
v 66.149055 21.962193 -30.029858
v 50.501720 23.518755 -45.677189
v 50.501720 21.962193 -45.677189
v 50.501720 23.518755 -30.029858
v 50.501720 21.962193 -30.029858
v 67.989891 23.518755 -28.189020
v 67.989891 23.518755 -47.518024
v 67.989891 21.962193 -47.518024
v 67.989891 21.962193 -28.189020
v 48.660881 23.518755 -28.189020
v 48.660881 21.962193 -28.189020
v 48.660881 23.518755 -47.518024
v 48.660881 21.962193 -47.518024
v 58.325386 54.129353 -39.564369
v 67.894333 45.719730 -46.174290
v 48.789001 45.753780 -45.716412
v 56.651890 54.168411 -37.853523
v 48.660881 45.812050 -47.518024
v 50.262131 45.738880 -28.302887
v 58.325386 54.363037 -36.366142
v 48.660881 45.812050 -28.189020
v 67.894333 45.719730 -29.532757
v 59.573566 54.613174 -37.853523
v 67.989891 45.812050 -28.189020
v 67.989891 45.812050 -47.518024
v 58.325386 55.918423 -37.853523
v 48.995319 23.489620 -30.939018
v 48.995319 23.760384 -30.939018
v 56.341862 23.489620 -46.489208
v 56.341862 23.760384 -46.489208
v 50.803665 23.489620 -30.084682
v 50.803665 23.760384 -30.084682
v 58.150208 23.489620 -45.634872
v 58.150208 23.760384 -45.634872
v 57.503323 23.489620 -45.940487
v 56.988747 23.489620 -46.183594
v 56.988747 23.760384 -46.183594
v 57.503323 23.760384 -45.940487
v 49.642204 23.489620 -30.633402
v 50.156780 23.489620 -30.390297
v 50.156780 23.760384 -30.390297
v 49.642204 23.760384 -30.633402
v 64.791885 23.489620 -29.659885
v 64.791885 23.760384 -29.659885
v 59.548946 23.489620 -46.039497
v 59.548946 23.760384 -46.039497
v 66.696686 23.489620 -30.269590
v 66.696686 23.760384 -30.269590
v 61.453743 23.489620 -46.649204
v 61.453743 23.760384 -46.649204
v 60.772358 23.489620 -46.431099
v 60.230335 23.489620 -46.257603
v 60.230335 23.760384 -46.257603
v 60.772358 23.760384 -46.431099
v 65.473274 23.489620 -29.877991
v 66.015297 23.489620 -30.051485
v 66.015297 23.760384 -30.051485
v 65.473274 23.760384 -29.877991
v 49.419220 31.928221 -30.079220
v 49.473370 32.174744 -30.177237
v 58.521172 23.378563 -46.554127
v 58.575321 23.625088 -46.652142
v 51.169819 31.928221 -29.112061
v 51.223972 32.174744 -29.210075
v 60.271770 23.378563 -45.586967
v 60.325920 23.625088 -45.684982
v 59.645542 23.378563 -45.932938
v 59.147400 23.378563 -46.208153
v 59.201550 23.625088 -46.306168
v 59.699696 23.625088 -46.030956
v 50.045448 31.928221 -29.733246
v 50.543591 31.928221 -29.458035
v 50.597744 32.174744 -29.556049
v 50.099602 32.174744 -29.831261
v 66.470238 38.998466 -34.413616
v 66.364311 39.244991 -34.377293
v 51.637169 31.875607 -29.327187
v 51.531242 32.122128 -29.290865
v 66.086746 39.125843 -36.396435
v 65.980820 39.372368 -36.360111
v 50.540588 31.660551 -31.065479
v 50.434662 31.907076 -31.029156
v 50.772655 31.660551 -30.388720
v 51.405098 31.875607 -30.003948
v 51.299171 32.122128 -29.967625
v 50.666733 31.907076 -30.352396
v 66.238167 38.998466 -35.090378
v 66.318817 39.125843 -35.719673
v 66.212891 39.372368 -35.683353
v 66.132240 39.244991 -35.054054
v 66.133179 39.041443 -29.560154
v 66.133179 39.312210 -29.560154
v 66.246971 39.041443 -46.757835
v 66.246971 39.312210 -46.757835
v 67.478096 39.041443 -29.551256
v 67.478096 39.312210 -29.551256
v 67.591881 39.041443 -46.748936
v 67.591881 39.312210 -46.748936
v 67.110779 39.041443 -46.752121
v 66.728073 39.041443 -46.754650
v 66.728073 39.312210 -46.754650
v 67.110779 39.312210 -46.752121
v 66.614288 39.041443 -29.556973
v 66.996986 39.041443 -29.554440
v 66.996986 39.312210 -29.554440
v 66.614288 39.312210 -29.556973
vn -0.0000 -1.0000 -0.0000
vn -0.0000 1.0000 -0.0000
vn 1.0000 -0.0000 -0.0000
vn -1.0000 -0.0000 -0.0000
vn -0.0000 -0.0000 -1.0000
vn -0.0000 -0.0000 1.0000
vn 0.4509 -0.7970 -0.4018
vn -0.0000 0.9213 0.3888
vn 0.0342 0.6697 -0.7419
vn -0.0342 0.6697 -0.7419
vn 0.4140 0.9103 -0.0000
vn -0.7422 0.6692 0.0351
vn -0.7422 0.6692 -0.0351
vn -0.0053 0.9803 0.1976
vn -0.0000 0.6911 0.7227
vn 0.0398 0.6668 0.7442
vn -0.6948 0.7192 -0.0000
vn 0.7476 0.6625 -0.0477
vn 0.7476 0.6625 0.0477
vn 0.4221 -0.7974 0.4313
vn -0.3597 -0.7942 0.4898
vn -0.4149 -0.8008 -0.4319
vn 0.1501 -0.9860 0.0720
vn -0.9042 -0.0000 -0.4272
vn 0.4272 -0.0000 -0.9042
vn 0.9042 -0.0000 0.4272
vn -0.4272 -0.0000 0.9042
vn -0.9524 -0.0000 0.3049
vn -0.3049 -0.0000 -0.9524
vn 0.9524 -0.0000 -0.3049
vn 0.3049 -0.0000 0.9524
vn -0.8753 -0.0000 -0.4836
vn 0.4403 -0.4136 -0.7969
vn 0.8753 -0.0000 0.4836
vn -0.4403 0.4136 0.7969
vn -0.2000 -0.9105 0.3620
vn 0.2000 0.9105 -0.3620
vn 0.3244 -0.0000 0.9459
vn -0.8612 -0.4136 0.2953
vn -0.3244 -0.0000 -0.9459
vn 0.8612 0.4136 -0.2953
vn 0.3912 -0.9105 -0.1341
vn -0.3912 0.9105 0.1342
vn 0.3912 -0.9105 -0.1342
vn -1.0000 -0.0000 -0.0066
vn 0.0066 -0.0000 -1.0000
vn 1.0000 -0.0000 0.0066
vn -0.0066 -0.0000 1.0000
vt 0.000000 0.000000
vt 1.000000 0.000000
vt 0.000000 1.000000
vt 1.000000 1.000000
vt 0.000000 1.000000
vt 0.000000 0.000000
vt 1.000000 0.000000
vt 1.000000 1.000000
vt 0.375000 0.000000
vt 0.375000 1.000000
vt 0.125000 0.750000
vt 0.625000 0.000000
vt 0.625000 1.000000
vt 0.875000 0.750000
vt 0.375000 0.250000
vt 0.125000 0.500000
vt 0.625000 0.250000
vt 0.875000 0.500000
vt 0.375000 0.750000
vt 0.625000 0.750000
vt 0.375000 0.500000
vt 0.625000 0.500000
vt 0.375000 0.000000
vt 0.375000 1.000000
vt 0.125000 0.750000
vt 0.625000 0.000000
vt 0.625000 1.000000
vt 0.875000 0.750000
vt 0.375000 0.250000
vt 0.125000 0.500000
vt 0.625000 0.250000
vt 0.875000 0.500000
vt 0.375000 0.750000
vt 0.625000 0.750000
vt 0.375000 0.500000
vt 0.625000 0.500000
vt 0.375000 0.000000
vt 0.375000 1.000000
vt 0.125000 0.750000
vt 0.625000 0.000000
vt 0.625000 1.000000
vt 0.875000 0.750000
vt 0.375000 0.250000
vt 0.125000 0.500000
vt 0.625000 0.250000
vt 0.875000 0.500000
vt 0.375000 0.750000
vt 0.625000 0.750000
vt 0.375000 0.500000
vt 0.625000 0.500000
vt 0.375000 0.000000
vt 0.375000 1.000000
vt 0.125000 0.750000
vt 0.625000 0.000000
vt 0.625000 1.000000
vt 0.875000 0.750000
vt 0.375000 0.250000
vt 0.125000 0.500000
vt 0.625000 0.250000
vt 0.875000 0.500000
vt 0.375000 0.750000
vt 0.625000 0.750000
vt 0.375000 0.500000
vt 0.625000 0.500000
vt 0.148809 0.726191
vt 0.000000 0.000000
vt 0.851191 0.726191
vt 0.000000 0.000000
vt 0.000000 0.000000
vt 0.148809 0.523809
vt 0.000000 0.000000
vt 0.851191 0.523809
vt 0.351191 0.726191
vt 0.000000 0.000000
vt 0.648809 0.726191
vt 0.000000 0.000000
vt 0.351191 0.523809
vt 0.000000 0.000000
vt 0.648809 0.523809
vt 0.000000 0.000000
vt 0.000000 0.000000
vt 0.000000 0.000000
vt 0.625000 0.000000
vt 0.625000 1.000000
vt 0.875000 0.750000
vt 0.625000 0.250000
vt 0.875000 0.500000
vt 0.000000 0.000000
vt 0.625000 0.500000
vt 0.000000 0.000000
vt 0.625000 0.750000
vt 0.148809 0.726191
vt 0.000000 0.000000
vt 0.851191 0.726191
vt 0.000000 0.000000
vt 0.148809 0.523809
vt 0.000000 0.000000
vt 0.851191 0.523809
vt 0.000000 0.000000
vt 0.351191 0.726191
vt 0.000000 0.000000
vt 0.648809 0.726191
vt 0.000000 0.000000
vt 0.351191 0.523809
vt 0.000000 0.000000
vt 0.648809 0.523809
vt 0.000000 0.000000
vt 0.375000 0.250000
vt 0.125000 0.500000
vt 0.375000 0.000000
vt 0.375000 1.000000
vt 0.125000 0.750000
vt 0.625000 0.000000
vt 0.625000 1.000000
vt 0.875000 0.750000
vt 0.625000 0.250000
vt 0.875000 0.500000
vt 0.375000 0.500000
vt 0.625000 0.500000
vt 0.375000 0.750000
vt 0.625000 0.750000
vt 0.000000 0.000000
vt 0.000000 0.000000
vt 0.000000 0.000000
vt 0.000000 0.000000
vt 0.375000 0.750000
vt 0.000000 0.000000
vt 0.000000 0.000000
vt 0.000000 0.000000
vt 0.375000 0.500000
vt 0.000000 0.000000
vt 0.000000 0.000000
vt 0.000000 0.000000
vt 0.375000 0.250000
vt 0.125000 0.500000
vt 0.000000 0.000000
vt 0.375000 0.000000
vt 0.375000 1.000000
vt 0.125000 0.750000
vt 0.000000 0.000000
vt 0.000000 0.000000
vt 0.375000 0.000000
vt 0.375000 1.000000
vt 0.125000 0.750000
vt 0.625000 0.000000
vt 0.625000 1.000000
vt 0.875000 0.750000
vt 0.125000 0.500000
vt 0.375000 0.250000
vt 0.875000 0.500000
vt 0.625000 0.250000
vt 0.375000 0.750000
vt 0.625000 0.750000
vt 0.375000 0.500000
vt 0.625000 0.500000
vt 0.375000 0.410570
vt 0.285570 0.500000
vt 0.000000 0.000000
vt 0.214431 0.500000
vt 0.375000 0.339431
vt 0.000000 0.000000
vt 0.785569 0.500000
vt 0.625000 0.339431
vt 0.000000 0.000000
vt 0.625000 0.410570
vt 0.714430 0.500000
vt 0.000000 0.000000
vt 0.375000 0.910569
vt 0.214431 0.750000
vt 0.000000 0.000000
vt 0.285570 0.750000
vt 0.375000 0.839430
vt 0.000000 0.000000
vt 0.714430 0.750000
vt 0.625000 0.839430
vt 0.000000 0.000000
vt 0.625000 0.910569
vt 0.785569 0.750000
vt 0.000000 0.000000
vt 0.375000 0.000000
vt 0.375000 1.000000
vt 0.125000 0.750000
vt 0.625000 0.000000
vt 0.625000 1.000000
vt 0.875000 0.750000
vt 0.125000 0.500000
vt 0.375000 0.250000
vt 0.875000 0.500000
vt 0.625000 0.250000
vt 0.375000 0.750000
vt 0.625000 0.750000
vt 0.375000 0.500000
vt 0.625000 0.500000
vt 0.375000 0.410570
vt 0.285570 0.500000
vt 0.000000 0.000000
vt 0.214431 0.500000
vt 0.375000 0.339431
vt 0.000000 0.000000
vt 0.785569 0.500000
vt 0.625000 0.339431
vt 0.000000 0.000000
vt 0.625000 0.410570
vt 0.714430 0.500000
vt 0.000000 0.000000
vt 0.375000 0.910569
vt 0.214431 0.750000
vt 0.000000 0.000000
vt 0.285570 0.750000
vt 0.375000 0.839430
vt 0.000000 0.000000
vt 0.714430 0.750000
vt 0.625000 0.839430
vt 0.000000 0.000000
vt 0.625000 0.910569
vt 0.785569 0.750000
vt 0.000000 0.000000
vt 0.375000 0.000000
vt 0.375000 1.000000
vt 0.125000 0.750000
vt 0.625000 0.000000
vt 0.625000 1.000000
vt 0.875000 0.750000
vt 0.125000 0.500000
vt 0.375000 0.250000
vt 0.875000 0.500000
vt 0.625000 0.250000
vt 0.375000 0.750000
vt 0.625000 0.750000
vt 0.375000 0.500000
vt 0.625000 0.500000
vt 0.375000 0.410570
vt 0.285570 0.500000
vt 0.000000 0.000000
vt 0.214431 0.500000
vt 0.375000 0.339431
vt 0.000000 0.000000
vt 0.785569 0.500000
vt 0.625000 0.339431
vt 0.000000 0.000000
vt 0.625000 0.410570
vt 0.714430 0.500000
vt 0.000000 0.000000
vt 0.375000 0.910569
vt 0.214431 0.750000
vt 0.000000 0.000000
vt 0.285570 0.750000
vt 0.375000 0.839430
vt 0.000000 0.000000
vt 0.714430 0.750000
vt 0.625000 0.839430
vt 0.000000 0.000000
vt 0.625000 0.910569
vt 0.785569 0.750000
vt 0.000000 0.000000
vt 0.375000 0.000000
vt 0.375000 1.000000
vt 0.125000 0.750000
vt 0.625000 0.000000
vt 0.625000 1.000000
vt 0.875000 0.750000
vt 0.125000 0.500000
vt 0.375000 0.250000
vt 0.875000 0.500000
vt 0.625000 0.250000
vt 0.375000 0.750000
vt 0.625000 0.750000
vt 0.375000 0.500000
vt 0.625000 0.500000
vt 0.375000 0.410570
vt 0.285570 0.500000
vt 0.000000 0.000000
vt 0.214431 0.500000
vt 0.375000 0.339431
vt 0.000000 0.000000
vt 0.785569 0.500000
vt 0.625000 0.339431
vt 0.000000 0.000000
vt 0.625000 0.410570
vt 0.714430 0.500000
vt 0.000000 0.000000
vt 0.375000 0.910569
vt 0.214431 0.750000
vt 0.000000 0.000000
vt 0.285570 0.750000
vt 0.375000 0.839430
vt 0.000000 0.000000
vt 0.714430 0.750000
vt 0.625000 0.839430
vt 0.000000 0.000000
vt 0.625000 0.910569
vt 0.785569 0.750000
vt 0.000000 0.000000
vt 0.375000 0.000000
vt 0.375000 1.000000
vt 0.125000 0.750000
vt 0.625000 0.000000
vt 0.625000 1.000000
vt 0.875000 0.750000
vt 0.125000 0.500000
vt 0.375000 0.250000
vt 0.875000 0.500000
vt 0.625000 0.250000
vt 0.375000 0.750000
vt 0.625000 0.750000
vt 0.375000 0.500000
vt 0.625000 0.500000
vt 0.375000 0.410570
vt 0.285570 0.500000
vt 0.000000 0.000000
vt 0.214431 0.500000
vt 0.375000 0.339431
vt 0.000000 0.000000
vt 0.785569 0.500000
vt 0.625000 0.339431
vt 0.000000 0.000000
vt 0.625000 0.410570
vt 0.714430 0.500000
vt 0.000000 0.000000
vt 0.375000 0.910569
vt 0.214431 0.750000
vt 0.000000 0.000000
vt 0.285570 0.750000
vt 0.375000 0.839430
vt 0.000000 0.000000
vt 0.714430 0.750000
vt 0.625000 0.839430
vt 0.000000 0.000000
vt 0.625000 0.910569
vt 0.785569 0.750000
vt 0.000000 0.000000
s 0
f 1/1/1 3/3/1 4/4/1 2/2/1
f 6/6/2 7/7/2 8/8/2 5/5/2
f 2/2/3 4/4/3 8/8/3 7/7/3
f 3/3/4 1/1/4 6/6/4 5/5/4
f 4/4/5 3/3/5 5/5/5 8/8/5
f 1/1/6 2/2/6 7/7/6 6/6/6
f 9/9/4 10/12/4 12/17/4 11/15/4
f 11/15/5 12/17/5 16/22/5 15/21/5
f 15/21/3 16/22/3 14/20/3 13/19/3
f 13/19/6 14/20/6 10/13/6 9/10/6
f 11/16/1 15/21/1 13/19/1 9/11/1
f 16/22/2 12/18/2 10/14/2 14/20/2
f 17/23/3 19/29/3 20/31/3 18/26/3
f 19/29/5 23/35/5 24/36/5 20/31/5
f 23/35/4 21/33/4 22/34/4 24/36/4
f 21/33/6 17/24/6 18/27/6 22/34/6
f 19/30/1 17/25/1 21/33/1 23/35/1
f 24/36/2 22/34/2 18/28/2 20/32/2
f 25/37/4 27/43/4 28/45/4 26/40/4
f 27/43/6 31/49/6 32/50/6 28/45/6
f 31/49/3 29/47/3 30/48/3 32/50/3
f 29/47/5 25/38/5 26/41/5 30/48/5
f 27/44/1 25/39/1 29/47/1 31/49/1
f 32/50/2 30/48/2 26/42/2 28/46/2
f 33/51/3 34/54/3 36/59/3 35/57/3
f 35/57/6 36/59/6 40/64/6 39/63/6
f 39/63/4 40/64/4 38/62/4 37/61/4
f 37/61/5 38/62/5 34/55/5 33/52/5
f 35/58/1 39/63/1 37/61/1 33/53/1
f 40/64/2 36/60/2 34/56/2 38/62/2
f 84/137/3 83/134/3 52/86/3 51/83/3
f 83/134/6 80/130/6 54/89/6 52/86/6
f 80/130/4 77/126/4 56/91/4 54/89/4
f 77/126/5 84/138/5 51/84/5 56/91/5
f 48/80/5 47/78/5 43/69/5 44/71/5
f 43/70/4 41/65/4 42/67/4 44/72/4
f 43/70/2 83/135/2 84/139/2 41/65/2
f 42/67/1 51/85/1 52/87/1 44/72/1
f 47/77/2 80/130/2 83/135/2 43/70/2
f 44/72/1 52/87/1 54/89/1 48/79/1
f 45/73/2 77/126/2 80/130/2 47/77/2
f 48/79/1 54/89/1 56/91/1 46/75/1
f 41/65/2 84/139/2 77/126/2 45/73/2
f 46/75/1 56/91/1 51/85/1 42/67/1
f 46/76/3 45/74/3 47/78/3 48/80/3
f 42/68/6 41/66/6 45/74/6 46/76/6
f 66/110/3 65/108/3 68/116/3 67/113/3
f 65/108/6 69/118/6 70/119/6 68/116/6
f 69/118/4 71/120/4 72/121/4 70/119/4
f 71/120/5 66/111/5 67/114/5 72/121/5
f 64/107/6 60/99/6 59/97/6 63/105/6
f 59/96/3 60/98/3 58/94/3 57/92/3
f 59/96/2 65/109/2 66/112/2 57/92/2
f 58/94/1 67/115/1 68/117/1 60/98/1
f 63/104/2 69/118/2 65/109/2 59/96/2
f 60/98/1 68/117/1 70/119/1 64/106/1
f 61/100/2 71/120/2 69/118/2 63/104/2
f 64/106/1 70/119/1 72/121/1 62/102/1
f 57/92/2 66/112/2 71/120/2 61/100/2
f 62/102/1 72/121/1 67/115/1 58/94/1
f 62/103/4 64/107/4 63/105/4 61/101/4
f 58/95/5 62/103/5 61/101/5 57/93/5
f 76/125/7 79/129/7 78/128/7 53/88/7
f 55/90/8 50/82/8 84/140/8 77/127/8
f 73/122/9 55/90/9 77/127/9 85/141/9
f 50/82/10 73/122/10 85/141/10 84/140/10
f 53/88/11 75/124/11 77/127/11 80/131/11
f 75/124/12 76/125/12 85/141/12 77/127/12
f 76/125/13 53/88/13 80/131/13 85/141/13
f 49/81/14 78/128/14 80/131/14 83/136/14
f 79/129/15 49/81/15 83/136/15 85/141/15
f 78/128/16 79/129/16 85/141/16 80/131/16
f 74/123/17 81/132/17 83/136/17 84/140/17
f 81/132/18 82/133/18 85/141/18 83/136/18
f 82/133/19 74/123/19 84/140/19 85/141/19
f 55/90/20 73/122/20 76/125/20 75/124/20
f 73/122/21 50/82/21 74/123/21 82/133/21
f 79/129/22 82/133/22 81/132/22 49/81/22
f 79/129/23 76/125/23 73/122/23 82/133/23
f 63/105/2 59/97/2 57/93/2 61/101/2
f 62/103/1 58/95/1 60/99/1 64/107/1
f 86/142/24 87/145/24 89/151/24 88/149/24
f 94/156/25 97/165/25 93/155/25 92/154/25
f 92/154/26 93/155/26 91/153/26 90/152/26
f 98/168/27 101/177/27 87/146/27 86/143/27
f 94/157/1 92/154/1 90/152/1 99/171/1
f 96/162/2 89/150/2 87/147/2 101/178/2
f 93/155/2 97/166/2 100/174/2 91/153/2
f 88/148/1 95/159/1 98/169/1 86/144/1
f 90/152/27 91/153/27 100/175/27 99/172/27
f 88/149/25 89/151/25 96/163/25 95/160/25
f 99/173/24 100/176/24 97/167/24 94/158/24
f 95/161/26 96/164/26 101/179/26 98/170/26
f 102/180/28 103/183/28 105/189/28 104/187/28
f 110/194/29 113/203/29 109/193/29 108/192/29
f 108/192/30 109/193/30 107/191/30 106/190/30
f 114/206/31 117/215/31 103/184/31 102/181/31
f 110/195/1 108/192/1 106/190/1 115/209/1
f 112/200/2 105/188/2 103/185/2 117/216/2
f 109/193/2 113/204/2 116/212/2 107/191/2
f 104/186/1 111/197/1 114/207/1 102/182/1
f 106/190/31 107/191/31 116/213/31 115/210/31
f 104/187/29 105/189/29 112/201/29 111/198/29
f 115/211/28 116/214/28 113/205/28 110/196/28
f 111/199/30 112/202/30 117/217/30 114/208/30
f 118/218/32 119/221/32 121/227/32 120/225/32
f 126/232/33 129/241/33 125/231/33 124/230/33
f 124/230/34 125/231/34 123/229/34 122/228/34
f 130/244/35 133/253/35 119/222/35 118/219/35
f 126/233/36 124/230/36 122/228/36 131/247/36
f 128/238/37 121/226/37 119/223/37 133/254/37
f 125/231/37 129/242/37 132/250/37 123/229/37
f 120/224/36 127/235/36 130/245/36 118/220/36
f 122/228/35 123/229/35 132/251/35 131/248/35
f 120/225/33 121/227/33 128/239/33 127/236/33
f 131/249/32 132/252/32 129/243/32 126/234/32
f 127/237/34 128/240/34 133/255/34 130/246/34
f 134/256/38 135/259/38 137/265/38 136/263/38
f 142/270/39 145/279/39 141/269/39 140/268/39
f 140/268/40 141/269/40 139/267/40 138/266/40
f 146/282/41 149/291/41 135/260/41 134/257/41
f 142/271/42 140/268/42 138/266/42 147/285/42
f 144/276/43 137/264/43 135/261/43 149/292/43
f 141/269/43 145/280/43 148/288/43 139/267/43
f 136/262/44 143/273/44 146/283/44 134/258/44
f 138/266/41 139/267/41 148/289/41 147/286/41
f 136/263/39 137/265/39 144/277/39 143/274/39
f 147/287/38 148/290/38 145/281/38 142/272/38
f 143/275/40 144/278/40 149/293/40 146/284/40
f 150/294/45 151/297/45 153/303/45 152/301/45
f 158/308/46 161/317/46 157/307/46 156/306/46
f 156/306/47 157/307/47 155/305/47 154/304/47
f 162/320/48 165/329/48 151/298/48 150/295/48
f 158/309/1 156/306/1 154/304/1 163/323/1
f 160/314/2 153/302/2 151/299/2 165/330/2
f 157/307/2 161/318/2 164/326/2 155/305/2
f 152/300/1 159/311/1 162/321/1 150/296/1
f 154/304/48 155/305/48 164/327/48 163/324/48
f 152/301/46 153/303/46 160/315/46 159/312/46
f 163/325/45 164/328/45 161/319/45 158/310/45
f 159/313/47 160/316/47 165/331/47 162/322/47
