# Blender 3.1.0
# www.blender.org
mtllib Stairway.mtl
o Stairway
v 26.605045 1.516642 16.477154
v 26.605045 2.709865 16.477154
v 33.525948 1.516642 16.477154
v 33.525948 2.709865 16.477154
v 26.605045 1.516642 18.515091
v 26.605045 1.516642 20.553026
v 26.605045 1.516642 22.590963
v 26.605045 1.516642 24.628901
v 26.605045 1.516642 26.666836
v 26.605045 1.516642 28.704771
v 26.605045 1.516642 30.742708
v 26.605045 2.709865 30.742708
v 26.605045 2.709865 28.704771
v 26.605045 2.709865 26.666836
v 26.605045 2.709865 24.628901
v 26.605045 2.709865 22.590963
v 26.605045 2.709865 20.553026
v 26.605045 2.709865 18.515091
v 33.525948 1.516642 30.742708
v 33.525948 1.516642 28.704771
v 33.525948 1.516642 26.666836
v 33.525948 1.516642 24.628901
v 33.525948 1.516642 22.590963
v 33.525948 1.516642 20.553026
v 33.525948 1.516642 18.515091
v 33.525948 2.709865 18.515091
v 33.525948 2.709865 20.553026
v 33.525948 2.709865 22.590963
v 33.525948 2.709865 24.628901
v 33.525948 2.709865 26.666836
v 33.525948 2.709865 28.704771
v 33.525948 2.709865 30.742708
v 26.605045 10.880732 18.515091
v 26.605045 10.880732 16.477154
v 33.525948 10.880732 16.477154
v 33.525948 10.880732 18.515091
v 26.605045 9.007975 20.553026
v 26.605045 9.007975 18.515091
v 33.525948 9.007975 18.515091
v 33.525948 9.007975 20.553026
v 26.605045 7.172647 22.590963
v 26.605045 7.172647 20.553026
v 33.525948 7.172647 20.553026
v 33.525948 7.172647 22.590963
v 26.605045 5.641899 24.628901
v 26.605045 5.641899 22.590963
v 33.525948 5.641899 22.590963
v 33.525948 5.641899 24.628901
v 26.605045 4.611232 26.666836
v 26.605045 4.611232 24.628901
v 33.525948 4.611232 24.628901
v 33.525948 4.611232 26.666836
v 26.605045 3.707538 28.704771
v 26.605045 3.707538 26.666836
v 33.525948 3.707538 26.666836
v 33.525948 3.707538 28.704771
vn -1.0000 -0.0000 -0.0000
vn -0.0000 -0.0000 -1.0000
vn 1.0000 -0.0000 -0.0000
vn -0.0000 -0.0000 1.0000
vn -0.0000 1.0000 -0.0000
vn -0.0000 -1.0000 -0.0000
vt 0.375000 0.250000
vt 0.125000 0.500000
vt 0.625000 0.250000
vt 0.375000 0.500000
vt 0.625000 0.500000
vt 0.125000 0.527778
vt 0.375000 0.222222
vt 0.125000 0.555556
vt 0.375000 0.194444
vt 0.125000 0.583333
vt 0.375000 0.166667
vt 0.125000 0.611111
vt 0.375000 0.138889
vt 0.125000 0.638889
vt 0.375000 0.111111
vt 0.125000 0.666667
vt 0.375000 0.083333
vt 0.125000 0.694444
vt 0.375000 0.055556
vt 0.875000 0.694444
vt 0.625000 0.055556
vt 0.875000 0.666667
vt 0.625000 0.083333
vt 0.875000 0.638889
vt 0.625000 0.111111
vt 0.625000 0.138889
vt 0.875000 0.611111
vt 0.875000 0.583333
vt 0.625000 0.166667
vt 0.625000 0.194444
vt 0.875000 0.555556
vt 0.875000 0.527778
vt 0.625000 0.222222
vt 0.375000 0.694444
vt 0.375000 0.666667
vt 0.375000 0.638889
vt 0.375000 0.611111
vt 0.375000 0.583333
vt 0.375000 0.555556
vt 0.375000 0.527778
vt 0.625000 0.527778
vt 0.625000 0.555556
vt 0.625000 0.583333
vt 0.625000 0.611111
vt 0.625000 0.638889
vt 0.625000 0.666667
vt 0.625000 0.694444
vt 0.625000 0.222222
vt 0.875000 0.527778
vt 0.875000 0.500000
vt 0.625000 0.250000
vt 0.625000 0.500000
vt 0.625000 0.527778
vt 0.625000 0.194444
vt 0.875000 0.555556
vt 0.875000 0.527778
vt 0.625000 0.222222
vt 0.625000 0.527778
vt 0.625000 0.555556
vt 0.625000 0.166667
vt 0.875000 0.583333
vt 0.625000 0.194444
vt 0.875000 0.555556
vt 0.625000 0.555556
vt 0.625000 0.583333
vt 0.625000 0.138889
vt 0.875000 0.611111
vt 0.875000 0.583333
vt 0.625000 0.166667
vt 0.625000 0.583333
vt 0.625000 0.611111
vt 0.875000 0.638889
vt 0.625000 0.111111
vt 0.625000 0.138889
vt 0.875000 0.611111
vt 0.625000 0.611111
vt 0.625000 0.638889
vt 0.875000 0.666667
vt 0.625000 0.083333
vt 0.875000 0.638889
vt 0.625000 0.111111
vt 0.625000 0.638889
vt 0.625000 0.666667
s 0
usemtl Material
f 5/7/1 18/33/1 2/3/1 1/1/1
f 1/1/2 2/3/2 4/5/2 3/4/2
f 2/3/1 18/33/1 33/48/1 34/51/1
f 27/42/3 26/41/3 39/58/3 40/59/3
f 17/30/1 16/29/1 41/60/1 42/62/1
f 29/44/3 28/43/3 47/70/3 48/71/3
f 14/24/4 30/45/4 52/77/4 49/72/4
f 30/45/2 14/24/2 54/80/2 55/82/2
f 31/46/5 13/22/5 12/20/5 32/47/5
f 1/2/6 3/4/6 25/40/6 5/6/6
f 5/6/6 25/40/6 24/39/6 6/8/6
f 6/8/6 24/39/6 23/38/6 7/10/6
f 7/10/6 23/38/6 22/37/6 8/12/6
f 8/12/6 22/37/6 21/36/6 9/14/6
f 9/14/6 21/36/6 20/35/6 10/16/6
f 10/16/6 20/35/6 19/34/6 11/18/6
f 3/4/3 4/5/3 26/41/3 25/40/3
f 25/40/3 26/41/3 27/42/3 24/39/3
f 24/39/3 27/42/3 28/43/3 23/38/3
f 23/38/3 28/43/3 29/44/3 22/37/3
f 22/37/3 29/44/3 30/45/3 21/36/3
f 21/36/3 30/45/3 31/46/3 20/35/3
f 20/35/3 31/46/3 32/47/3 19/34/3
f 12/21/4 11/19/4 19/34/4 32/47/4
f 11/19/1 12/21/1 13/23/1 10/17/1
f 10/17/1 13/23/1 14/25/1 9/15/1
f 9/15/1 14/25/1 15/26/1 8/13/1
f 8/13/1 15/26/1 16/29/1 7/11/1
f 7/11/1 16/29/1 17/30/1 6/9/1
f 6/9/1 17/30/1 18/33/1 5/7/1
f 35/52/5 34/50/5 33/49/5 36/53/5
f 18/32/4 26/41/4 36/53/4 33/49/4
f 4/5/2 2/3/2 34/51/2 35/52/2
f 26/41/3 4/5/3 35/52/3 36/53/3
f 39/58/5 38/56/5 37/55/5 40/59/5
f 26/41/2 18/32/2 38/56/2 39/58/2
f 18/33/1 17/30/1 37/54/1 38/57/1
f 17/31/4 27/42/4 40/59/4 37/55/4
f 43/64/5 42/63/5 41/61/5 44/65/5
f 16/28/4 28/43/4 44/65/4 41/61/4
f 28/43/3 27/42/3 43/64/3 44/65/3
f 27/42/2 17/31/2 42/63/2 43/64/2
f 47/70/5 46/68/5 45/67/5 48/71/5
f 28/43/2 16/28/2 46/68/2 47/70/2
f 16/29/1 15/26/1 45/66/1 46/69/1
f 15/27/4 29/44/4 48/71/4 45/67/4
f 51/76/5 50/75/5 49/72/5 52/77/5
f 15/26/1 14/25/1 49/73/1 50/74/1
f 30/45/3 29/44/3 51/76/3 52/77/3
f 29/44/2 15/27/2 50/75/2 51/76/2
f 55/82/5 54/80/5 53/78/5 56/83/5
f 13/22/4 31/46/4 56/83/4 53/78/4
f 14/25/1 13/23/1 53/79/1 54/81/1
f 31/46/3 30/45/3 55/82/3 56/83/3
