# Blender 3.1.0
# www.blender.org
mtllib TunnelCube.mtl
o TunnelCube
v -6.327703 2.530051 27.899771
v -6.327703 17.532412 27.899771
v -6.327703 2.530051 12.897409
v -6.327703 17.532412 12.897409
v 8.674658 2.530051 27.899771
v 8.674658 17.532412 27.899771
v 8.674658 2.530051 12.897409
v 8.674658 17.532412 12.897409
v -6.327703 2.530051 17.898197
v -6.327703 2.530051 22.898983
v -6.327703 17.532412 22.898983
v -6.327703 17.532412 17.898197
v 8.674658 2.530051 22.898983
v 8.674658 2.530051 17.898197
v 8.674658 17.532412 17.898197
v 8.674658 17.532412 22.898983
v -6.327703 7.530838 27.899771
v -6.327703 12.531625 27.899771
v -6.327703 12.531624 12.897409
v -6.327703 7.530837 12.897409
v 8.674658 12.531624 12.897409
v 8.674658 7.530837 12.897409
v 8.674658 12.531624 27.899771
v 8.674658 7.530837 27.899771
v 8.674658 12.531624 17.898197
v 8.674658 7.530837 17.898197
v 8.674658 12.531624 22.898983
v 8.674658 7.530837 22.898983
v -6.327703 12.531624 22.898983
v -6.327703 7.530837 22.898983
v -6.327703 12.531624 17.898197
v -6.327703 7.530837 17.898197
v 3.673871 2.530051 12.897409
v -1.326916 2.530051 12.897409
v -1.326915 17.532412 12.897409
v 3.673871 17.532412 12.897409
v -1.326915 2.530051 27.899771
v 3.673871 2.530051 27.899771
v 3.673871 17.532412 27.899771
v -1.326916 17.532412 27.899771
v 3.673871 2.530051 17.898197
v -1.326916 2.530051 17.898197
v 3.673871 2.530051 22.898983
v -1.326916 2.530051 22.898983
v 3.673871 7.530838 27.899771
v -1.326916 7.530838 27.899771
v 3.673871 12.531624 27.899771
v -1.326916 12.531624 27.899771
v -1.326915 7.530837 12.897409
v 3.673871 7.530837 12.897409
v -1.326915 12.531624 12.897409
v 3.673871 12.531624 12.897409
v -1.326916 7.530838 17.898197
v -1.326916 7.530838 22.898983
v -1.326916 12.531624 17.898197
v -1.326916 12.531624 22.898983
v 3.673871 12.531624 17.898197
v 3.673871 12.531624 22.898983
v 3.673871 7.530837 17.898197
v 3.673871 7.530837 22.898983
vn -0.0000 -1.0000 -0.0000
vn -0.0000 -0.0000 1.0000
vn -0.0000 1.0000 -0.0000
vn -0.0000 -0.0000 -1.0000
vn -1.0000 -0.0000 -0.0000
vn 1.0000 -0.0000 -0.0000
vn -0.7071 -0.7071 -0.0000
vn -0.0000 -0.7071 -0.7071
vn 0.7071 -0.7071 -0.0000
vn -0.0000 -0.7071 0.7071
vt 0.375000 0.000000
vt 0.375000 1.000000
vt 0.125000 0.750000
vt 0.625000 0.000000
vt 0.625000 1.000000
vt 0.125000 0.500000
vt 0.375000 0.250000
vt 0.625000 0.250000
vt 0.375000 0.750000
vt 0.625000 0.750000
vt 0.375000 0.500000
vt 0.625000 0.500000
vt 0.375000 0.166667
vt 0.125000 0.583333
vt 0.375000 0.083333
vt 0.125000 0.666667
vt 0.625000 0.083333
vt 0.875000 0.666667
vt 0.875000 0.583333
vt 0.625000 0.166667
vt 0.375000 0.666667
vt 0.375000 0.583333
vt 0.625000 0.583333
vt 0.625000 0.666667
vt 0.458333 0.000000
vt 0.458333 1.000000
vt 0.541667 0.000000
vt 0.541667 1.000000
vt 0.541667 0.250000
vt 0.458333 0.250000
vt 0.541667 0.500000
vt 0.458333 0.500000
vt 0.541667 0.750000
vt 0.458333 0.750000
vt 0.541667 0.583333
vt 0.458333 0.583333
vt 0.541667 0.666667
vt 0.458333 0.666667
vt 0.541667 0.083333
vt 0.458333 0.083333
vt 0.541667 0.166667
vt 0.458333 0.166667
vt 0.375000 0.416667
vt 0.291667 0.500000
vt 0.375000 0.333333
vt 0.208333 0.500000
vt 0.625000 0.333333
vt 0.791667 0.500000
vt 0.708333 0.500000
vt 0.625000 0.416667
vt 0.375000 0.916667
vt 0.208333 0.750000
vt 0.375000 0.833333
vt 0.291667 0.750000
vt 0.625000 0.833333
vt 0.708333 0.750000
vt 0.791667 0.750000
vt 0.625000 0.916667
vt 0.291667 0.583333
vt 0.208333 0.583333
vt 0.291667 0.666667
vt 0.208333 0.666667
vt 0.458333 0.833333
vt 0.458333 0.916667
vt 0.541667 0.833333
vt 0.541667 0.916667
vt 0.458333 0.333333
vt 0.458333 0.416667
vt 0.541667 0.333333
vt 0.541667 0.416667
vt 0.458333 0.527778
vt 0.458333 0.722222
vt 0.541667 0.527778
vt 0.541667 0.722222
vt 0.541667 0.555556
vt 0.541667 0.694444
vt 0.458333 0.555556
vt 0.458333 0.694444
s 0
usemtl Material
f 42/60/1 41/59/1 43/61/1 44/62/1
f 23/33/2 47/65/2 45/63/2 24/34/2
f 3/6/1 34/46/1 42/60/1 9/14/1
f 59/77/3 60/78/3 28/38/3 26/36/3
f 50/68/4 52/70/4 21/31/4 22/32/4
f 32/42/5 20/30/5 3/7/5 9/13/5
f 4/8/5 19/29/5 31/41/5 12/20/5
f 22/32/6 21/31/6 25/35/6 26/36/6
f 1/1/5 17/25/5 30/40/5 10/15/5
f 19/29/5 20/30/5 32/42/5 31/41/5
f 18/27/5 2/4/5 11/17/5 29/39/5
f 17/25/5 18/27/5 29/39/5 30/40/5
f 28/38/6 24/34/6 5/9/6 13/21/6
f 46/64/2 48/66/2 18/28/2 17/26/2
f 25/35/2 15/23/2 57/75/2
f 10/15/5 30/40/5 32/42/5 9/13/5
f 7/11/6 22/32/6 26/36/6 14/22/6
f 6/10/6 23/33/6 27/37/6 16/24/6
f 41/59/1 14/22/1 13/21/1 43/61/1
f 24/34/2 45/63/2 38/53/2 5/9/2
f 4/8/4 35/47/4 51/69/4 19/29/4
f 49/67/3 53/71/3 59/77/3 50/68/3
f 20/30/4 49/67/4 34/45/4 3/7/4
f 19/29/4 51/69/4 49/67/4 20/30/4
f 52/70/4 36/50/4 8/12/4 21/31/4
f 56/74/6 48/66/6 46/64/6 54/72/6
f 52/70/5 57/75/5 36/49/5
f 33/43/4 50/68/4 22/32/4 7/11/4
f 30/40/4 29/39/4 56/74/4 54/72/4
f 48/66/2 40/58/2 2/5/2 18/28/2
f 49/67/4 50/68/4 33/43/4 34/45/4
f 52/70/5 50/68/5 59/77/5 57/75/5
f 37/51/2 46/64/2 17/26/2 1/2/2
f 21/31/6 8/12/6 15/23/6 25/35/6
f 45/63/2 46/64/2 37/51/2 38/53/2
f 5/9/1 38/54/1 43/61/1 13/21/1
f 9/14/1 42/60/1 44/62/1 10/16/1
f 58/76/4 27/37/4 28/38/4 60/78/4
f 57/75/2 59/77/2 26/36/2 25/35/2
f 37/52/1 44/62/1 43/61/1 38/54/1
f 6/10/2 39/55/2 47/65/2 23/33/2
f 33/44/1 7/11/1 14/22/1 41/59/1
f 34/46/1 33/44/1 41/59/1 42/60/1
f 44/62/1 37/52/1 1/3/1 10/16/1
f 55/73/7 56/74/7 11/18/7 12/19/7
f 59/77/3 53/71/3 54/72/3 60/78/3
f 49/67/6 51/69/6 55/73/6 53/71/6
f 60/78/5 45/63/5 47/65/5 58/76/5
f 60/78/3 54/72/3 46/64/3 45/63/3
f 35/48/8 36/49/8 57/75/8 55/73/8
f 30/40/3 54/72/3 53/71/3 32/42/3
f 32/42/2 53/71/2 55/73/2 31/41/2
f 55/73/1 57/75/1 58/76/1 56/74/1
f 14/22/6 26/36/6 28/38/6 13/21/6
f 23/33/6 24/34/6 28/38/6 27/37/6
f 55/73/6 51/69/6 35/47/6
f 16/24/9 58/76/9 57/75/9 15/23/9
f 27/37/4 58/76/4 16/24/4
f 56/74/4 29/39/4 11/17/4
f 55/73/2 12/20/2 31/41/2
f 40/57/10 56/74/10 58/76/10 39/56/10
f 47/65/5 39/56/5 58/76/5
f 48/66/6 56/74/6 40/57/6
f 2/5/3 40/58/3 39/56/3 6/10/3 16/24/3 15/23/3 8/12/3 36/50/3 35/48/3 4/8/3 12/20/3 11/18/3
